<?xml version="1.0" standalone="no"?>
<!DOCTYPE svg PUBLIC "-//W3C//DTD SVG 20010904//EN"
 "http://www.w3.org/TR/2001/REC-SVG-20010904/DTD/svg10.dtd">
<svg version="1.0" xmlns="http://www.w3.org/2000/svg"
 width="1045.000000pt" height="1045.000000pt" viewBox="0 0 1045.000000 1045.000000"
 preserveAspectRatio="xMidYMid meet">
<metadata>
Created by potrace 1.11, written by Peter Selinger 2001-2013
</metadata>
<g transform="translate(0.000000,1045.000000) scale(0.100000,-0.100000)"
fill="#000000" stroke="none">
<path d="M0 8710 l0 -1740 1740 0 1740 0 0 1740 0 1740 -1740 0 -1740 0 0
-1740z m2980 5 l0 -1245 -1245 0 -1245 0 0 1245 0 1245 1245 0 1245 0 0 -1245z"/>
<path d="M990 8715 l0 -745 745 0 745 0 0 745 0 745 -745 0 -745 0 0 -745z"/>
<path d="M3980 9955 l0 -495 250 0 250 0 0 -500 0 -500 -250 0 -250 0 0 -1245
0 -1245 250 0 250 0 0 -250 0 -250 250 0 250 0 0 -245 0 -245 -500 0 -500 0 0
245 0 245 -995 0 -995 0 0 -245 0 -245 995 0 995 0 0 -250 0 -250 -1245 0
-1245 0 0 495 0 495 248 2 247 3 3 248 2 247 -250 0 -250 0 0 250 0 250 -745
0 -745 0 0 -250 0 -250 245 0 245 0 0 -250 0 -250 -245 0 -245 0 0 -745 0
-745 1990 0 1990 0 0 -250 0 -250 250 0 250 0 0 -250 0 -250 -250 0 -250 0 0
-250 0 -250 498 3 497 2 3 248 2 247 245 0 244 0 3 -252 c2 -139 2 -362 0
-495 l-2 -243 -245 0 -245 0 0 -750 0 -750 -250 0 -250 0 0 500 0 500 -250 0
-250 0 0 -745 0 -745 745 0 745 0 0 995 0 995 750 0 750 0 0 -250 0 -250 -250
0 -250 0 0 -250 0 -250 -250 0 -250 0 0 -250 0 -250 250 0 250 0 0 -245 0
-245 500 0 500 0 0 245 0 245 -500 0 -500 0 0 250 0 250 250 0 250 0 0 250 0
250 250 0 250 0 0 -250 0 -250 250 0 251 0 -1 248 c0 136 0 361 0 500 l0 252
245 0 245 0 0 -250 0 -250 250 0 250 0 0 -500 0 -500 -495 0 -495 0 0 -245 0
-245 745 0 745 0 0 495 0 495 495 0 495 0 0 250 0 250 -745 0 -745 0 0 495 0
495 250 0 250 0 0 -245 0 -245 250 0 250 0 0 245 0 245 245 0 245 0 0 250 0
250 -245 0 -245 0 0 -250 0 -250 -250 0 -250 0 0 250 0 250 -250 0 -250 0 0
250 0 250 250 0 250 0 0 250 0 250 -500 0 -500 0 0 500 0 500 -245 0 -244 0
-3 253 c-2 138 -2 361 0 495 l2 242 245 0 245 0 0 250 0 250 -1245 0 -1245 0
0 250 0 250 250 0 250 0 0 250 0 250 -250 0 -250 0 0 -250 0 -250 -250 0 -250
0 0 500 0 500 -245 0 -245 0 0 -500 0 -500 -250 0 -250 0 0 745 0 745 248 2
247 3 3 248 2 247 245 0 245 0 2 -247 3 -248 248 -3 247 -2 0 -245 0 -245 250
0 250 0 0 495 0 495 -250 0 -250 0 0 250 0 250 250 0 250 0 0 495 0 495 -1245
0 -1245 0 0 -495z m1490 -245 l0 -250 -245 0 -245 0 0 250 0 250 245 0 245 0
0 -250z m-3980 -3990 l0 -250 -250 0 -250 0 0 -245 0 -245 -250 0 -250 0 0
245 0 245 250 0 250 0 0 250 0 250 250 0 250 0 0 -250z m4980 -245 l0 -495
250 0 250 0 0 495 0 495 250 0 250 0 0 -495 0 -495 250 0 250 0 0 -750 0 -750
245 0 245 0 0 -250 0 -250 -245 0 -245 0 -2 -247 -3 -248 -997 -3 -998 -2 0
250 0 250 750 0 750 0 -2 998 -3 997 -247 3 -248 2 0 -250 0 -250 -250 0 -250
0 0 -500 0 -500 -250 0 -250 0 0 250 0 250 -250 0 -250 0 0 995 0 995 500 0
500 0 0 -495z m-1990 -1245 l0 -250 -250 0 -250 0 0 250 0 250 250 0 250 0 0
-250z"/>
<path d="M5977 4973 c-4 -3 -7 -116 -7 -250 l0 -243 250 0 250 0 0 250 0 250
-243 0 c-134 0 -247 -3 -250 -7z"/>
<path d="M6970 8710 l0 -1740 1740 0 1740 0 0 1740 0 1740 -1740 0 -1740 0 0
-1740z m2990 5 l0 -1245 -1245 0 -1245 0 0 1245 0 1245 1245 0 1245 0 0 -1245z"/>
<path d="M7970 8715 l0 -745 745 0 745 0 0 745 0 745 -745 0 -745 0 0 -745z"/>
<path d="M2482 6223 l3 -248 498 -3 497 -2 0 250 0 250 -500 0 -500 0 2 -247z"/>
<path d="M9460 6220 l0 -250 -250 0 -250 0 2 -247 3 -248 248 -3 247 -2 0
-245 0 -245 -247 -2 -248 -3 -3 -247 -2 -248 250 0 250 0 0 250 0 250 250 0
250 0 0 -750 0 -750 245 0 245 0 0 750 0 750 -245 0 -245 0 0 495 0 495 245 0
245 0 0 250 0 250 -495 0 -495 0 0 -250z"/>
<path d="M0 1740 l0 -1740 1740 0 1740 0 0 1740 0 1740 -1740 0 -1740 0 0
-1740z m2980 -5 l0 -1245 -1245 0 -1245 0 0 1245 0 1245 1245 0 1245 0 0
-1245z"/>
<path d="M990 1735 l0 -745 745 0 745 0 0 745 0 745 -745 0 -745 0 0 -745z"/>
<path d="M9960 245 l0 -245 245 0 245 0 0 245 0 245 -245 0 -245 0 0 -245z"/>
</g>
</svg>
